<?xml version="1.0" standalone="no"?>
<!DOCTYPE svg PUBLIC "-//W3C//DTD SVG 20010904//EN"
 "http://www.w3.org/TR/2001/REC-SVG-20010904/DTD/svg10.dtd">
<svg version="1.0" xmlns="http://www.w3.org/2000/svg"
 width="769.000000pt" height="324.000000pt" viewBox="0 0 769.000000 324.000000"
 preserveAspectRatio="xMidYMid meet">

<g transform="translate(0.000000,324.000000) scale(0.100000,-0.100000)"
fill="#000000" stroke="none">
<path d="M360 2711 c0 -41 116 -205 204 -288 114 -109 258 -186 426 -229 84
-21 244 -23 1095 -14 445 5 450 5 450 -15 0 -19 -9 -20 -220 -27 -1209 -39
-1243 -39 -1498 -9 -200 24 -217 25 -217 12 0 -5 30 -48 66 -97 170 -229 309
-333 471 -353 130 -16 373 5 688 59 529 92 633 110 653 110 31 0 31 -38 0 -44
-70 -15 -314 -59 -448 -81 -182 -30 -509 -87 -664 -116 -60 -11 -177 -32 -260
-45 -83 -14 -153 -28 -156 -30 -2 -3 0 -8 6 -12 6 -4 37 -28 70 -53 121 -94
248 -153 392 -180 140 -26 426 9 657 81 141 44 357 107 393 115 25 5 33 3 38
-10 4 -9 4 -18 1 -21 -10 -10 -523 -162 -807 -240 -151 -41 -279 -76 -283 -77
-14 -4 72 -56 168 -102 156 -74 264 -90 413 -59 98 20 377 111 555 180 76 30
143 54 150 54 7 0 21 6 30 13 16 11 16 16 -9 77 -36 89 -36 215 1 345 59 206
67 247 63 335 -2 72 -8 96 -35 150 -85 172 -322 314 -651 390 -133 30 -691 98
-1117 135 -99 9 -247 22 -330 30 -301 28 -295 28 -295 16z"/>
<path d="M7080 2699 c-102 -10 -264 -25 -360 -34 -478 -43 -991 -106 -1120
-136 -259 -60 -473 -166 -581 -287 -122 -137 -135 -273 -53 -541 50 -164 56
-269 20 -371 -14 -41 -27 -79 -28 -83 -2 -5 26 -19 62 -31 36 -13 124 -45 195
-73 163 -63 431 -148 509 -162 88 -16 164 -13 250 9 72 18 244 99 295 138 l23
19 -123 32 c-68 18 -153 41 -189 51 -36 10 -117 33 -180 50 -63 18 -196 57
-295 87 -99 30 -207 62 -240 72 -38 11 -61 24 -63 34 -5 25 17 29 73 13 103
-29 332 -97 373 -112 54 -18 201 -50 318 -69 201 -33 392 -9 541 66 86 44 265
170 248 175 -6 2 -89 17 -185 33 -96 17 -251 44 -345 61 -93 16 -289 50 -435
75 -146 24 -323 56 -395 70 -71 14 -140 25 -151 25 -28 0 -46 21 -34 40 10 16
-3 17 355 -45 116 -20 273 -47 350 -61 227 -39 379 -55 534 -55 124 -1 155 2
206 20 135 48 266 168 414 376 31 45 39 61 27 63 -8 2 -97 -6 -198 -17 -289
-32 -322 -33 -513 -22 -99 6 -304 13 -455 16 -765 15 -788 16 -759 52 10 11
58 13 283 7 149 -3 478 -6 731 -7 453 -2 461 -2 545 21 255 70 456 223 580
440 22 39 40 74 40 77 0 8 -72 4 -270 -16z"/>
<path d="M2538 2421 c125 -75 215 -164 260 -255 61 -121 57 -239 -13 -491 -45
-159 -49 -205 -31 -293 21 -102 67 -182 145 -254 l66 -61 -45 23 c-25 13 -66
40 -92 62 -55 45 -63 45 -177 -2 -178 -73 -355 -191 -601 -400 -160 -136 -347
-254 -452 -284 -20 -6 -17 -9 27 -27 79 -32 205 -59 271 -59 76 0 175 29 237
71 27 17 78 66 115 107 142 160 149 166 92 82 -74 -109 -181 -223 -255 -272
-36 -23 -65 -45 -65 -49 0 -10 184 -22 244 -16 89 9 159 42 226 107 53 51 70
77 131 206 64 136 142 264 159 264 4 0 25 -37 47 -82 70 -146 138 -203 313
-263 41 -14 96 -39 123 -56 41 -25 46 -33 41 -54 -7 -29 18 -75 41 -75 17 0
20 31 4 47 -17 17 33 66 105 101 72 35 107 40 126 17 17 -21 40 -19 40 3 0 51
-80 67 -157 32 -41 -18 -57 -14 -30 8 66 54 201 90 219 59 5 -10 18 -17 28
-17 29 0 25 35 -6 59 -31 24 -63 26 -119 6 l-40 -14 -63 64 c-63 65 -129 181
-119 209 8 20 186 93 290 118 75 19 119 23 237 22 182 0 272 -22 473 -114 41
-18 47 -24 41 -43 -15 -52 -63 -126 -120 -186 l-61 -65 -56 14 c-46 10 -61 11
-87 0 -32 -13 -55 -44 -45 -60 9 -15 35 -12 41 5 13 32 111 13 188 -35 56 -36
54 -50 -4 -26 -74 29 -150 12 -150 -35 0 -23 17 -24 44 -4 11 8 28 15 38 15
27 0 139 -56 171 -85 30 -29 32 -36 16 -52 -14 -14 -5 -43 14 -43 19 0 42 46
39 79 -2 26 5 32 65 63 38 20 93 43 123 53 93 30 145 61 199 121 50 55 111
158 111 188 0 8 5 18 12 22 22 14 78 -69 162 -241 56 -114 96 -183 122 -210
99 -101 187 -131 356 -122 137 7 153 15 96 47 -67 37 -115 79 -183 158 -64 74
-150 192 -141 192 3 0 44 -45 92 -101 101 -116 171 -168 268 -198 110 -34 198
-27 374 30 59 20 81 39 45 39 -24 0 -174 76 -243 122 -50 34 -142 106 -340
268 -170 138 -434 292 -552 321 -47 11 -48 11 -87 -24 -43 -39 -129 -92 -137
-85 -2 3 7 13 21 22 84 55 163 176 186 284 16 77 7 149 -40 332 -61 241 -62
338 -3 460 37 76 148 186 249 245 45 27 80 51 78 53 -6 6 -113 -17 -202 -44
-268 -80 -400 -200 -448 -409 -16 -68 -40 -290 -55 -510 -7 -95 -15 -152 -23
-157 -7 -4 -38 -5 -70 -2 -54 6 -60 5 -113 -30 -66 -44 -65 -46 41 -101 101
-53 99 -70 -9 -102 l-79 -24 39 -40 c44 -45 37 -51 -15 -13 -76 56 -78 76 -13
100 26 9 50 20 55 24 4 3 -29 26 -73 51 -99 54 -100 62 -25 112 31 21 35 27
20 28 -11 1 -29 2 -40 3 -67 3 -231 -17 -297 -38 l-77 -24 -57 19 c-32 11 -87
24 -123 30 -64 10 -229 15 -237 7 -2 -3 17 -19 42 -36 25 -18 44 -38 41 -45
-2 -7 -35 -30 -74 -52 -38 -22 -71 -44 -72 -49 -1 -6 16 -17 38 -26 68 -26 72
-37 26 -77 -41 -35 -75 -58 -75 -49 0 3 14 21 31 41 35 39 38 36 -61 63 -97
26 -94 45 16 102 47 25 87 48 90 51 2 4 -21 23 -52 43 -53 35 -59 37 -117 32
-34 -3 -67 -2 -73 2 -6 4 -16 85 -22 184 -17 237 -49 478 -73 551 -38 112
-122 205 -246 270 -73 38 -267 100 -348 111 l-50 7 83 -50z m787 -1744 c17 -8
55 -22 85 -32 l54 -18 -24 -16 c-37 -24 -64 -59 -70 -89 -5 -26 -7 -24 -51 38
-26 36 -63 98 -84 139 l-36 73 48 -40 c26 -22 62 -46 78 -55z m1132 1 c-55
-101 -111 -180 -120 -171 -4 3 -7 15 -7 26 0 11 -19 37 -41 58 -29 27 -38 40
-28 44 8 2 34 12 59 20 58 20 119 57 149 89 14 14 26 24 29 22 2 -3 -16 -42
-41 -88z"/>
</g>
</svg>
